{"title":"Ragini MMS 2 (2014) 720p Pre DvDRip x264 AAC 6 Channels {VikkyMa","uid":10037509,"size":1022001141,"categoryP":"video","categoryS":"hd___movies","magnet":"?xt=urn:btih:83502bc4dffe22f437e0128bbada2a3a62febbf4&amp;dn=Ragini+MMS+2+%282014%29+720p+Pre+DvDRip+x264+AAC+6+Channels+%7BVikkyMa&amp;tr=udp%3A%2F%2Ftracker.openbittorrent.com%3A80&amp;tr=udp%3A%2F%2Fopen.demonii.com%3A1337&amp;tr=udp%3A%2F%2Ftracker.coppersurfer.tk%3A6969&amp;tr=udp%3A%2F%2Fexodus.desync.com%3A6969","seeders":1,"leechers":0,"uploader":"shailendramaxx","files":-1,"time":1398421225,"description":"General:-\n \nComplete name :Ragini MMS 2 (2014) 720p Pre DvDRip x264 AAC {VikkyMaxx}[SilverRG]\nFormat : MPEG-4 \nFormat profile : Base Media \nCodec ID : isom \nFile size : 951 MiB \nDuration : 1h 58mn \nOverall bit rate mode : Variable \nOverall bit rate : 1 126 Kbps \nEncoded date : UTC 2014-03-25 12:44:34 \nTagged date : UTC 2014-03-25 12:44:34 \n\nVideo:-\n \nID : 1 \nFormat : AVC \nFormat/Info : Advanced Video Codec \nFormat profile : &lt;a class=&quot;__cf_email__&quot; href=&quot;/cdn-cgi/l/email-protection&quot; data-cfemail=&quot;5b13323c331b176f756b&quot;&gt;[email&amp;#160;protected]&lt;/a&gt;&lt;script cf-hash='f9e31' type=&quot;text/javascript&quot;&gt;\n/* &lt;![CDATA[ */!function(){try{var t=&quot;currentScript&quot;in document?document.currentScript:function(){for(var t=document.getElementsByTagName(&quot;script&quot;),e=t.length;e--;)if(t[e].getAttribute(&quot;cf-hash&quot;))return t[e]}();if(t&amp;&amp;t.previousSibling){var e,r,n,i,c=t.previousSibling,a=c.getAttribute(&quot;data-cfemail&quot;);if(a){for(e=&quot;&quot;,r=parseInt(a.substr(0,2),16),n=2;a.length-n;n+=2)i=parseInt(a.substr(n,2),16)^r,e+=String.fromCharCode(i);e=document.createTextNode(e),c.parentNode.replaceChild(e,c)}}}catch(u){}}();/* ]]&gt; */&lt;/script&gt; \nFormat settings, CABAC : Yes \nFormat settings, ReFrames : 8 frames \nCodec ID : avc1 \nCodec ID/Info : Advanced Video Coding \nDuration : 1h 58mn \nBit rate : 931 Kbps \nMaximum bit rate : 2 971 Kbps \nWidth : 1 280 pixels \nHeight : 544 pixels \nDisplay aspect ratio : 2.35:1 \nFrame rate mode : Constant \nFrame rate : 23.976 fps \nColor space : YUV \nChroma subsampling : 4:2:0 \nBit depth : 8 bits \nScan type : Progressive \nBits/(Pixel*Frame) : 0.056 \nStream size : 787 MiB (83%) \nWriting library : x264 core 138 r2358 9e941d1 \nEncoding settings : cabac=1 / ref=8 / deblock=1:-1:-1 \n\nAudio:-\n \nID : 2 \nFormat : AAC \nFormat/Info : Advanced Audio Codec \nFormat profile : LC \nCodec ID : 40 \nDuration : 1h 58mn \nBit rate mode : Variable \nBit rate : 192 Kbps \nMaximum bit rate : 218 Kbps \nChannel(s) : 6 channels \nChannel positions : Front: L C R, Side: L R, LFE \nSampling rate : 44.1 KHz \nCompression mode : Lossy \nStream size : 161 MiB (17%) \nLanguage : Hindi \nEncoded date : UTC 2014-03-25 12:31:52 \nTagged date : UTC 2014-03-25 12:45:19 \nLanguage: HINDI\n\n\n\nSCREENS:-\n\n &lt;a href=&quot; http://i.imgur.com/fQ45K6D.jpg&quot; rel=&quot;nofollow&quot; target=&quot;_NEW&quot;&gt; http://i.imgur.com/fQ45K6D.jpg&lt;/a&gt;\n\n &lt;a href=&quot; http://i.imgur.com/8CQtzFA.jpg&quot; rel=&quot;nofollow&quot; target=&quot;_NEW&quot;&gt; http://i.imgur.com/8CQtzFA.jpg&lt;/a&gt;\n\n &lt;a href=&quot; http://i.imgur.com/smd5WOp.jpg&quot; rel=&quot;nofollow&quot; target=&quot;_NEW&quot;&gt; http://i.imgur.com/smd5WOp.jpg&lt;/a&gt;\n\n &lt;a href=&quot; http://i.imgur.com/kcygK7J.jpg&quot; rel=&quot;nofollow&quot; target=&quot;_NEW&quot;&gt; http://i.imgur.com/kcygK7J.jpg&lt;/a&gt;\n\n &lt;a href=&quot; http://i.imgur.com/XTrI0nt.jpg&quot; rel=&quot;nofollow&quot; target=&quot;_NEW&quot;&gt; http://i.imgur.com/XTrI0nt.jpg&lt;/a&gt;\n\n &lt;a href=&quot; http://i.imgur.com/nRTrKe5.jpg&quot; rel=&quot;nofollow&quot; target=&quot;_NEW&quot;&gt; http://i.imgur.com/nRTrKe5.jpg&lt;/a&gt;\n \n &lt;a href=&quot; http://i.imgur.com/aamaRIC.jpg&quot; rel=&quot;nofollow&quot; target=&quot;_NEW&quot;&gt; http://i.imgur.com/aamaRIC.jpg&lt;/a&gt;\n\n &lt;a href=&quot; http://i.imgur.com/eOk0WUW.jpg&quot; rel=&quot;nofollow&quot; target=&quot;_NEW&quot;&gt; http://i.imgur.com/eOk0WUW.jpg&lt;/a&gt;\n\n &lt;a href=&quot; http://i.imgur.com/lFwCWXB.jpg&quot; rel=&quot;nofollow&quot; target=&quot;_NEW&quot;&gt; http://i.imgur.com/lFwCWXB.jpg&lt;/a&gt;\n\n &lt;a href=&quot; http://i.imgur.com/9mc2Tcf.jpg&quot; rel=&quot;nofollow&quot; target=&quot;_NEW&quot;&gt; http://i.imgur.com/9mc2Tcf.jpg&lt;/a&gt;\n\n &lt;a href=&quot; http://i.imgur.com/r8MtJJ4.jpg&quot; rel=&quot;nofollow&quot; target=&quot;_NEW&quot;&gt; http://i.imgur.com/r8MtJJ4.jpg&lt;/a&gt;\n\n &lt;a href=&quot; http://i.imgur.com/kSlpjdh.jpg&quot; rel=&quot;nofollow&quot; target=&quot;_NEW&quot;&gt; http://i.imgur.com/kSlpjdh.jpg&lt;/a&gt;\n\n\n\n\nSAMPLE AND SCREENSHOTS INCLUDED\n\n    \n             \n             ********** PLEASE SEED AS LONG AS YOU CAN AFTER DOWNLOAD **********\n       \n                    ***** THANK YOU REGARDS - VIKKYMAXX (SilverRG) *****\n\t\t","torrent":{"xt":"urn:btih:83502bc4dffe22f437e0128bbada2a3a62febbf4","amp;dn":"Ragini+MMS+2+%282014%29+720p+Pre+DvDRip+x264+AAC+6+Channels+%7BVikkyMa","amp;tr":["udp%3A%2F%2Ftracker.openbittorrent.com%3A80","udp%3A%2F%2Fopen.demonii.com%3A1337","udp%3A%2F%2Ftracker.coppersurfer.tk%3A6969","udp%3A%2F%2Fexodus.desync.com%3A6969"],"infoHash":"83502bc4dffe22f437e0128bbada2a3a62febbf4","infoHashBuffer":{"type":"Buffer","data":[131,80,43,196,223,254,34,244,55,224,18,139,186,218,42,58,98,254,187,244]},"announce":[],"urlList":[]}}